<svg width="29" height="29" viewBox="0 0 29 29" fill="none" xmlns="http://www.w3.org/2000/svg">
<g id="Frame">
<g id="Group">
<g id="1">
<path id="Vector" d="M26.6571 5.81292C26.6571 6.44497 26.4697 7.06283 26.1185 7.58837C25.7674 8.1139 25.2682 8.52351 24.6843 8.76538C24.1004 9.00726 23.4578 9.07055 22.8379 8.94724C22.218 8.82393 21.6486 8.51957 21.2016 8.07264C20.7547 7.62571 20.4503 7.05628 20.327 6.43637C20.2037 5.81646 20.267 5.17391 20.5089 4.58996C20.7508 4.00602 21.1604 3.50692 21.6859 3.15576C22.2114 2.80461 22.8293 2.61719 23.4614 2.61719C24.3086 2.61811 25.1209 2.9551 25.7201 3.55421C26.3192 4.15333 26.6562 4.96564 26.6571 5.81292Z" fill="#16954F"/>
<path id="Vector_2" d="M25.7846 9.81467V17.3914C25.7836 18.1534 25.6324 18.9076 25.3398 19.6111C25.0472 20.3146 24.6189 20.9535 24.0794 21.4915C23.5398 22.0294 22.8995 22.4558 22.1952 22.7463C21.4908 23.0368 20.7361 23.1857 19.9742 23.1844H18.2311C18.0508 23.1844 17.873 23.2262 17.7116 23.3067C17.5503 23.3872 17.4099 23.5041 17.3014 23.6481L15.5583 25.9653C15.4089 26.1997 15.2028 26.3927 14.959 26.5264C14.7153 26.6601 14.4418 26.7302 14.1638 26.7302C13.8858 26.7302 13.6123 26.6601 13.3686 26.5264C13.1248 26.3927 12.9187 26.1997 12.7693 25.9653L11.0262 23.6481C10.9108 23.5118 10.7689 23.4003 10.6091 23.3206C10.4492 23.2409 10.2748 23.1946 10.0965 23.1844H8.35338C7.59157 23.1857 6.83697 23.0368 6.13268 22.7464C5.42839 22.456 4.7882 22.0297 4.24865 21.4919C3.7091 20.9541 3.28077 20.3153 2.98811 19.6119C2.69545 18.9085 2.54419 18.1544 2.54297 17.3926V9.28127C2.54404 8.51936 2.69518 7.76512 2.98778 7.06163C3.28037 6.35814 3.70868 5.71918 4.24824 5.18123C4.7878 4.64329 5.42805 4.2169 6.13241 3.92642C6.83678 3.63595 7.59147 3.48707 8.35338 3.48829H19.4582C19.0397 4.19164 18.8167 4.99401 18.8121 5.81245C18.8134 7.04489 19.3035 8.2265 20.175 9.09796C21.0464 9.96943 22.228 10.4596 23.4605 10.4608C24.2789 10.4563 25.0813 10.2332 25.7846 9.81467Z" fill="#16954F"/>
<path id="Vector_3" d="M14.1675 15.1093H14.1605C13.8526 15.1084 13.5577 14.9853 13.3405 14.7671C13.1232 14.5489 13.0015 14.2534 13.002 13.9455C13.0024 13.6376 13.1251 13.3425 13.3429 13.1249C13.5608 12.9074 13.8561 12.7852 14.164 12.7852C14.4719 12.7852 14.7673 12.9074 14.9851 13.1249C15.203 13.3425 15.3257 13.6376 15.3261 13.9455C15.3266 14.2534 15.2048 14.5489 14.9876 14.7671C14.7704 14.9853 14.4754 15.1084 14.1675 15.1093Z" fill="white"/>
<path id="Vector_4" d="M18.816 15.1093H18.809C18.5011 15.1084 18.2061 14.9853 17.9889 14.7671C17.7717 14.5489 17.6499 14.2534 17.6504 13.9455C17.6509 13.6376 17.7735 13.3425 17.9914 13.1249C18.2093 12.9074 18.5046 12.7852 18.8125 12.7852C19.1204 12.7852 19.4157 12.9074 19.6336 13.1249C19.8515 13.3425 19.9741 13.6376 19.9746 13.9455C19.975 14.2534 19.8533 14.5489 19.636 14.7671C19.4188 14.9853 19.1239 15.1084 18.816 15.1093Z" fill="white"/>
<path id="Vector_5" d="M9.51908 15.1093H9.51211C9.20421 15.1084 8.90926 14.9853 8.69204 14.7671C8.47481 14.5489 8.35306 14.2534 8.35352 13.9455C8.35398 13.6376 8.47662 13.3425 8.6945 13.1249C8.91238 12.9074 9.2077 12.7852 9.5156 12.7852C9.8235 12.7852 10.1188 12.9074 10.3367 13.1249C10.5546 13.3425 10.6772 13.6376 10.6777 13.9455C10.6781 14.2534 10.5564 14.5489 10.3392 14.7671C10.1219 14.9853 9.82698 15.1084 9.51908 15.1093Z" fill="white"/>
</g>
</g>
</g>
</svg>
