<svg width="42" height="42" viewBox="0 0 42 42" fill="none" xmlns="http://www.w3.org/2000/svg">
<g id="earth 1" clip-path="url(#clip0_2837_38903)">
<path id="Vector" d="M18.9478 40.7865C14.4311 40.7614 10.1014 38.98 6.87485 35.8192C3.64832 32.6584 1.7782 28.3663 1.66023 23.851C1.54227 19.3358 3.18573 14.9518 6.24282 11.6269C9.2999 8.30192 13.5307 6.29686 18.04 6.03604C18.1247 6.03139 18.2095 6.04522 18.2884 6.07657C18.3672 6.10792 18.4384 6.15604 18.4968 6.21761C18.555 6.27879 18.5992 6.35181 18.6265 6.43167C18.6538 6.51153 18.6635 6.59635 18.655 6.68032C18.6461 6.83639 18.6461 6.99283 18.655 7.14889C18.7283 7.96738 18.9014 8.77383 19.1704 9.55032C19.3168 10.054 19.475 10.5753 19.5804 11.1083C19.967 12.9885 19.5804 14.6226 18.4617 15.5363C17.5304 16.3036 16.359 16.3973 15.2227 16.491C14.1801 16.573 13.1902 16.655 12.5752 17.27C11.9602 17.885 11.8958 18.7285 11.7728 19.6715C11.7217 20.5022 11.5233 21.3173 11.1871 22.0788C10.3085 23.7656 8.04767 24.609 6.03281 23.9882C4.74526 23.5502 3.63512 22.7052 2.86996 21.5809C2.8022 22.1858 2.76701 22.7938 2.76453 23.4025C2.75571 25.8901 3.31926 28.3464 4.41159 30.5814C5.50391 32.8165 7.09574 34.7702 9.06392 36.2916C11.0321 37.8131 13.3239 38.8613 15.762 39.3554C18.2001 39.8494 20.7192 39.7759 23.1244 39.1407C25.5295 38.5054 27.7564 37.3254 29.6326 35.6919C31.5088 34.0584 32.984 32.0152 33.9443 29.7204C34.9045 27.4255 35.324 24.9405 35.1703 22.4576C35.0165 19.9747 34.2937 17.5605 33.0577 15.4016C32.98 15.2665 32.9592 15.106 32.9998 14.9555C33.0405 14.805 33.1392 14.6768 33.2744 14.5992C33.4095 14.5215 33.57 14.5007 33.7205 14.5413C33.871 14.582 33.9991 14.6807 34.0768 14.8159C35.5777 17.4615 36.3584 20.4545 36.341 23.4962C36.3235 26.5379 35.5086 29.5217 33.9775 32.15C32.4465 34.7783 30.2528 36.959 27.6155 38.4744C24.9782 39.9899 21.9895 40.7871 18.9478 40.7865ZM3.13353 19.812C3.44025 20.5083 3.88179 21.1369 4.43268 21.6617C4.98358 22.1864 5.63291 22.5969 6.34324 22.8695C7.80753 23.3205 9.50024 22.723 10.1152 21.534C10.3898 20.8946 10.5542 20.2134 10.6014 19.5192C10.742 18.4239 10.8884 17.2935 11.7318 16.4442C12.5752 15.5949 13.9048 15.4192 15.1172 15.3196C16.1188 15.2435 17.0618 15.1615 17.7061 14.6343C18.8131 13.7206 18.532 11.8873 18.4265 11.3485C18.3211 10.8096 18.1805 10.382 18.0341 9.88418C17.7435 9.03314 17.5567 8.15013 17.4777 7.25432C14.0659 7.56145 10.8394 8.94249 8.26203 11.1989C5.68463 13.4553 3.88909 16.4709 3.13353 19.812Z" fill="white"/>
<path id="Vector_2" d="M25.3682 39.446C25.2721 39.4455 25.1775 39.4214 25.0929 39.3757C22.2611 37.8783 19.8458 35.7005 18.0643 33.0383C17.4673 32.2038 17.0559 31.2512 16.8578 30.2444C16.7532 29.6806 16.7882 29.0997 16.9597 28.5524C17.1312 28.0052 17.434 27.5083 17.8418 27.105C18.6793 26.3553 19.8859 26.1151 21.5376 26.367L22.217 26.4783C23.0167 26.682 23.8487 26.7258 24.6653 26.6071C25.5732 26.4021 26.4225 25.7344 27.383 24.522L27.9102 23.8191C28.4996 22.9431 29.2095 22.1544 30.0188 21.4763C30.8423 20.8727 31.8043 20.4856 32.8165 20.3505C33.8286 20.2154 34.8584 20.3366 35.8115 20.7031C35.8895 20.7248 35.9622 20.7625 36.0249 20.8137C36.0876 20.8649 36.1391 20.9285 36.1759 21.0006C36.2128 21.0727 36.2344 21.1516 36.2392 21.2324C36.2441 21.3133 36.2321 21.3942 36.2041 21.4702C36.176 21.5462 36.1325 21.6155 36.0764 21.6738C36.0202 21.7321 35.9525 21.7781 35.8777 21.809C35.8028 21.8398 35.7223 21.8548 35.6414 21.853C35.5604 21.8512 35.4807 21.8326 35.4073 21.7984C34.6386 21.5021 33.8084 21.4005 32.9909 21.5027C32.1734 21.6049 31.3938 21.9077 30.7216 22.3841C29.999 22.9975 29.3662 23.7092 28.8415 24.4986L28.2968 25.2248C27.5998 26.1444 26.4811 27.3686 24.9231 27.7258C23.9491 27.8865 22.9525 27.8467 21.9945 27.6087L21.3385 27.5033C20.0792 27.31 19.1596 27.4623 18.609 27.9543C18.3508 28.229 18.1628 28.5621 18.0608 28.9251C17.9588 29.2881 17.946 29.6704 18.0233 30.0394C18.2025 30.887 18.5621 31.6861 19.0776 32.3823C20.7413 34.8827 22.9993 36.9314 25.6493 38.3448C25.7643 38.4069 25.8552 38.5056 25.9076 38.6252C25.9601 38.7449 25.971 38.8786 25.9387 39.0052C25.9063 39.1317 25.8326 39.2439 25.7293 39.3237C25.6259 39.4036 25.4988 39.4466 25.3682 39.446Z" fill="white"/>
<path id="Vector_3" d="M11.0644 33.6243C10.4746 33.6551 9.8845 33.5674 9.32915 33.3662C8.77381 33.1649 8.26447 32.8544 7.83128 32.4528C6.07414 30.6605 6.00971 29.3778 6.27328 28.6223C6.46556 28.1697 6.78223 27.7808 7.18655 27.5009C7.59086 27.221 8.06625 27.0615 8.55757 27.0408C9.07093 26.9487 9.59973 26.9994 10.0862 27.1874C10.5727 27.3754 10.9982 27.6935 11.3163 28.1068C11.5854 28.4485 11.9569 28.6949 12.3764 28.8097C12.8534 28.9371 13.2864 29.1928 13.6282 29.5491C13.97 29.9053 14.2076 30.3485 14.3151 30.8304C14.4729 31.3451 14.4439 31.8989 14.2331 32.3943C14.0344 32.7341 13.7542 33.0191 13.4177 33.2236C13.0813 33.4281 12.6993 33.5457 12.3061 33.5657C11.894 33.6134 11.4792 33.6329 11.0644 33.6243ZM8.98514 28.2064H8.68643C8.41648 28.2127 8.15311 28.2909 7.92349 28.433C7.69388 28.5751 7.50636 28.7759 7.38029 29.0147C7.16357 29.6355 7.63214 30.5903 8.66886 31.6387C9.58257 32.5875 11.2343 32.4997 12.1363 32.3708C12.4584 32.324 13.0149 32.1951 13.1847 31.8613C13.2666 31.61 13.2666 31.3393 13.1847 31.0881C13.0207 30.3853 12.6459 30.2037 11.9489 29.9167C11.2963 29.7169 10.7293 29.3046 10.3381 28.7453C10.172 28.554 9.96247 28.4052 9.72709 28.3115C9.49171 28.2177 9.2373 28.1817 8.98514 28.2064Z" fill="white"/>
<path id="Vector_4" d="M31.0776 15.9827C29.8246 16.0358 28.576 15.804 27.4255 15.3049C26.2751 14.8057 25.2528 14.0522 24.4356 13.101C21.7589 9.80926 22.7546 5.53941 22.8014 5.35783C22.8288 5.2488 22.887 5.14996 22.9691 5.0731C23.0511 4.99624 23.1536 4.94462 23.2641 4.92441C23.3701 4.89895 23.481 4.90356 23.5845 4.93771C23.688 4.97185 23.7799 5.03418 23.8499 5.11769C24.8339 6.28912 26.5969 6.57026 28.3071 6.87483C30.1287 7.18526 31.8214 7.46055 32.7703 8.77255C34.381 11.0334 34.1936 14.987 34.1819 15.151C34.1762 15.2752 34.1311 15.3943 34.0532 15.4912C33.9752 15.5881 33.8685 15.6576 33.7484 15.6898C32.8727 15.892 31.9763 15.9903 31.0776 15.9827ZM23.803 6.65226C23.5776 8.68289 24.1301 10.7235 25.3493 12.363C27.7331 15.2915 31.6926 14.8698 32.9636 14.6355C32.9636 13.593 32.8464 10.969 31.757 9.44612C31.1186 8.54998 29.625 8.27469 28.0494 8.02283C26.6261 7.77098 25.0213 7.49569 23.803 6.65226Z" fill="white"/>
<path id="Vector_5" d="M33.5671 15.7005C33.5148 15.7091 33.4614 15.7091 33.409 15.7005C30.4538 14.8818 27.9024 13.0058 26.2399 10.4291C26.1975 10.3624 26.169 10.2879 26.1562 10.2099C26.1434 10.132 26.1465 10.0523 26.1653 9.97553C26.184 9.8988 26.2182 9.82667 26.2656 9.76347C26.313 9.70027 26.3726 9.64732 26.441 9.60778C26.5094 9.56825 26.5851 9.54296 26.6635 9.53344C26.7419 9.52391 26.8215 9.53035 26.8973 9.55236C26.9732 9.57436 27.0438 9.61149 27.105 9.66151C27.1661 9.71152 27.2165 9.77339 27.2531 9.84338C28.7421 12.0934 30.9719 13.7512 33.5554 14.5291C34.4223 14.207 38.5633 12.4791 39.0611 8.43767C39.3657 5.92495 38.1416 3.83395 37.3216 2.75038C36.7359 4.1151 35.5644 5.20453 34.4399 6.18267C33.4734 7.05538 32.5597 7.87538 32.2083 8.73638C32.1828 8.81216 32.1422 8.88194 32.0887 8.9414C32.0353 9.00087 31.9703 9.04877 31.8977 9.08216C31.825 9.11555 31.7463 9.13371 31.6664 9.13554C31.5865 9.13737 31.5071 9.12282 31.433 9.09278C31.3589 9.06275 31.2917 9.01787 31.2357 8.96091C31.1796 8.90395 31.1357 8.83611 31.1069 8.76157C31.078 8.68703 31.0647 8.60736 31.0677 8.52749C31.0708 8.44761 31.0902 8.3692 31.1247 8.2971C31.5757 7.18424 32.589 6.27638 33.6609 5.31581C34.9494 4.14438 36.279 2.97295 36.4957 1.46181C36.5106 1.3541 36.5553 1.25267 36.6246 1.16887C36.6939 1.08508 36.7851 1.02224 36.8881 0.987383C36.9888 0.954831 37.0965 0.950168 37.1996 0.973888C37.3027 0.997608 37.3975 1.04883 37.4739 1.1221C37.6203 1.25095 40.7363 4.33767 40.2501 8.57238C39.6059 13.8438 34.0123 15.601 33.7721 15.6888C33.705 15.7048 33.6356 15.7087 33.5671 15.7005Z" fill="white"/>
</g>
<defs>
<clipPath id="clip0_2837_38903">
<rect width="41" height="41" fill="white" transform="translate(0.421875 0.373047)"/>
</clipPath>
</defs>
</svg>
