<svg width="48" height="49" viewBox="0 0 48 49" fill="none" xmlns="http://www.w3.org/2000/svg">
<g id="collaboration 1" clip-path="url(#clip0_2837_38894)">
<path id="Vector" d="M47.0542 30.6724L40.8341 23.3824C41.1939 21.9499 41.3849 20.4649 41.3849 18.9574V18.9499V18.9424C41.3849 9.00492 33.4609 0.919922 23.7305 0.919922C18.0024 0.919922 12.9058 3.71742 9.68189 8.04492C9.67455 8.05242 9.6672 8.05992 9.65986 8.06742V8.07492C7.41267 11.0974 6.07611 14.8699 6.07611 18.9499C6.07611 20.4574 6.26705 21.9424 6.62689 23.3824L0.414077 30.6724C0.28189 30.8299 0.215796 31.0399 0.245171 31.2424C0.274546 31.4449 0.384702 31.6324 0.553609 31.7524L6.66361 35.9899C6.78845 36.0724 6.92798 36.1174 7.06017 36.1174C7.28048 36.1174 7.5008 36.0124 7.64033 35.8099L8.05892 35.2174C8.52892 35.9074 9.09439 36.6349 9.73329 37.2199C8.91814 38.3149 9.10173 39.8899 10.1666 40.7449C10.6219 41.1124 11.1653 41.2924 11.7088 41.2924C11.7308 41.2924 11.7528 41.2849 11.7749 41.2849C11.7749 41.3824 11.7675 41.4799 11.7822 41.5774C11.8556 42.2374 12.1788 42.8224 12.6855 43.2349L12.7736 43.3099C13.2216 43.6699 13.7503 43.8424 14.2791 43.8424C14.4186 43.8424 14.5508 43.8199 14.6903 43.7974C14.7858 44.4124 15.0942 44.9599 15.5716 45.3499L15.6597 45.4174C16.093 45.7699 16.6144 45.9499 17.1578 45.9499C17.2533 45.9499 17.3488 45.9424 17.4442 45.9349C17.5985 45.9199 17.7527 45.8824 17.8995 45.8374C18.0317 46.3249 18.3035 46.7749 18.722 47.1124L18.8102 47.1799C19.2435 47.5324 19.7649 47.7124 20.3083 47.7124C20.4038 47.7124 20.4992 47.7049 20.5947 47.6974C21.2409 47.6224 21.8138 47.2924 22.2177 46.7749L22.3645 46.5874L22.7317 46.8724C23.1503 47.1799 23.657 47.3449 24.1931 47.3449C25.0156 47.3449 25.7867 46.9324 26.2494 46.2574C26.4697 45.9349 26.6092 45.5674 26.668 45.1849L27.3583 45.6799C27.8063 46.0024 28.3203 46.1674 28.8564 46.1674C29.0106 46.1674 29.1575 46.1524 29.3117 46.1299C30.002 46.0099 30.5969 45.6199 31.0008 45.0349C31.2505 44.6674 31.39 44.2624 31.4414 43.8499C31.8527 44.0974 32.3153 44.2324 32.7706 44.2324C33.5931 44.2324 34.401 43.8349 34.915 43.0999C35.1574 42.7474 35.2969 42.3424 35.3556 41.9299C35.7742 42.1999 36.2516 42.3499 36.7436 42.3499C36.8978 42.3499 37.052 42.3349 37.1989 42.3124C37.8892 42.1924 38.4914 41.8024 38.888 41.2174C39.2038 40.7599 39.3653 40.2274 39.3653 39.6874C39.3653 38.8249 38.9467 38.0074 38.2417 37.4974L37.8231 37.2049C38.3592 36.7024 38.8953 36.0499 39.4388 35.2549L39.8574 35.8474C39.9969 36.0499 40.2172 36.1549 40.4375 36.1549C40.577 36.1549 40.7166 36.1174 40.8341 36.0274L46.9441 31.7899C47.113 31.6699 47.2231 31.4899 47.2525 31.2799C47.2525 31.0399 47.1864 30.8299 47.0542 30.6724ZM38.6824 20.8624C38.4474 20.5849 38.0508 20.5324 37.7497 20.7349L32.6385 24.2224C32.4769 24.3349 32.3667 24.4999 32.33 24.6949V24.7474C32.0289 24.7174 31.7278 24.6874 31.4267 24.6649C31.6617 23.0599 31.7939 21.3949 31.8233 19.6849H39.9308C39.8941 20.4724 39.8133 21.2599 39.6664 22.0249L38.6824 20.8624ZM20.1467 24.8374C20.0145 24.8524 19.897 24.9049 19.7942 24.9949L19.6988 25.0624C18.9791 24.9124 18.2374 24.8149 17.481 24.7474C17.2239 23.1274 17.077 21.4324 17.0477 19.6774H23.0108V24.5599C22.0488 24.6274 21.0867 24.7174 20.1467 24.8374ZM7.51548 18.2299C7.65501 14.9374 8.74189 11.8999 10.497 9.37242C12.12 10.2199 14.1175 10.9024 16.3427 11.3674C15.9167 13.4599 15.667 15.7699 15.623 18.2224H7.51548V18.2299ZM39.9455 18.2299H31.838C31.7939 15.7774 31.5442 13.4599 31.1183 11.3749C33.3435 10.9099 35.3336 10.2274 36.9639 9.37242C38.7191 11.8924 39.806 14.9374 39.9455 18.2299ZM24.4428 12.1024C26.2641 12.0724 28.0339 11.9149 29.7083 11.6299C30.1195 13.6474 30.3766 15.8824 30.4133 18.2299H24.4428V12.1024ZM24.4428 10.6474V2.47242C26.4991 3.04242 28.3056 6.01992 29.3778 10.2049C27.8063 10.4674 26.1539 10.6099 24.4428 10.6474ZM23.0181 2.47242V10.6399C21.3144 10.6099 19.662 10.4599 18.0831 10.2049C19.1553 6.01992 20.9619 3.04242 23.0181 2.47242ZM17.7527 11.6299C19.4344 11.9074 21.1969 12.0649 23.0181 12.1024V18.2299H17.0477C17.0917 15.8824 17.3414 13.6474 17.7527 11.6299ZM24.4428 19.6774H30.406C30.3766 21.3499 30.2444 22.9849 30.0094 24.5524C28.0927 24.4324 26.242 24.4174 24.4428 24.4849V19.6774ZM36.068 8.20242C34.5919 8.93742 32.7927 9.53742 30.7878 9.95742C30.002 6.87492 28.827 4.39242 27.395 2.80992C30.8319 3.61992 33.8502 5.54742 36.068 8.20242ZM20.0586 2.80992C18.6266 4.38492 17.4442 6.87492 16.6658 9.95742C14.661 9.53742 12.8617 8.94492 11.3856 8.20992C13.6035 5.54742 16.6291 3.61992 20.0586 2.80992ZM7.52283 19.6774H15.6303C15.6597 21.4024 15.7992 23.0824 16.0342 24.6874C15.7258 24.6874 15.4247 24.6874 15.1236 24.6949V24.6874C15.0869 24.4924 14.9767 24.3199 14.8152 24.2149L9.70392 20.7274C9.41017 20.5249 9.00626 20.5774 8.77126 20.8549L7.77986 22.0174C7.64033 21.2524 7.5522 20.4724 7.52283 19.6774ZM6.87658 34.3924L2.00767 31.0174L9.43955 22.3024L13.4199 25.0174L6.87658 34.3924ZM11.0331 39.5974C10.5778 39.2299 10.497 38.5474 10.8495 38.0899L11.0992 37.7824C11.2755 37.5574 11.5252 37.4149 11.8042 37.3774C11.8483 37.3699 11.885 37.3699 11.9291 37.3699C12.1641 37.3699 12.3917 37.4524 12.5827 37.6024C13.016 37.9549 13.1041 38.5774 12.803 39.0424L12.5166 39.4099L12.5092 39.4174C12.1567 39.8899 11.4958 39.9649 11.0331 39.5974ZM13.6402 42.1624L13.552 42.0874C13.3391 41.9149 13.2069 41.6749 13.1775 41.4049C13.1481 41.1349 13.2216 40.8649 13.3831 40.6474L13.6328 40.3174L13.8605 40.0324C13.8605 40.0249 13.8678 40.0249 13.8678 40.0174C13.8899 39.9949 13.8972 39.9649 13.9119 39.9424L14.5435 39.1324C14.7417 38.8774 15.0355 38.7424 15.3292 38.7424C15.5495 38.7424 15.7699 38.8174 15.9535 38.9599L16.0416 39.0274C16.2545 39.1999 16.3867 39.4399 16.4161 39.7099C16.4455 39.9799 16.372 40.2499 16.2105 40.4674L15.0428 41.9749C14.705 42.4324 14.0735 42.5074 13.6402 42.1624ZM17.2606 44.4874C16.9963 44.5174 16.7319 44.4424 16.5263 44.2774L16.4381 44.2099C16.0049 43.8574 15.9314 43.2124 16.2766 42.7699L18.3475 40.0924C18.5458 39.8374 18.8395 39.7024 19.1333 39.7024C19.3536 39.7024 19.5666 39.7774 19.7502 39.9199L19.8383 39.9874C20.2716 40.3399 20.345 40.9849 19.9999 41.4274L18.3108 43.6099L18.2961 43.6249L17.9216 44.1124C17.76 44.3149 17.525 44.4499 17.2606 44.4874ZM20.4111 46.2424C20.1467 46.2724 19.8824 46.1974 19.6694 46.0249L19.5813 45.9574C19.148 45.6049 19.0745 44.9599 19.4124 44.5174L19.6988 44.1424L19.8383 43.9624C20.0072 43.7449 20.2422 43.6099 20.5066 43.5799C20.5433 43.5724 20.5874 43.5724 20.6241 43.5724C20.8517 43.5724 21.0647 43.6474 21.2483 43.7974L21.3364 43.8649C21.7697 44.2174 21.8431 44.8624 21.498 45.3049L21.072 45.8599C20.9178 46.0774 20.6755 46.2124 20.4111 46.2424ZM37.6836 40.3474C37.5074 40.6099 37.2356 40.7899 36.9199 40.8424C36.6041 40.8949 36.2883 40.8274 36.0313 40.6399L34.2688 39.3799C34.2614 39.3724 34.2541 39.3649 34.2467 39.3574L28.8785 35.4799C28.783 35.4124 28.6875 35.3824 28.5774 35.3599C28.3056 35.2924 28.0045 35.3974 27.8356 35.6449C27.608 35.9749 27.6888 36.4249 28.0119 36.6574L33.4463 40.5649C33.6886 40.7524 33.8575 41.0149 33.9089 41.3299C33.9603 41.6524 33.8942 41.9674 33.7106 42.2374C33.3361 42.7849 32.5944 42.9199 32.0583 42.5374L26.8589 38.7424C26.5358 38.5099 26.0952 38.5849 25.8675 38.9074C25.6399 39.2374 25.7133 39.6874 26.0291 39.9199L29.4366 42.4099C29.4586 42.4324 29.4806 42.4624 29.51 42.4849C30.0461 42.8674 30.1783 43.6249 29.7964 44.1724C29.6128 44.4349 29.3411 44.6149 29.0327 44.6674C28.7169 44.7199 28.4011 44.6524 28.1441 44.4649L25.6252 42.6574C25.6178 42.6499 25.6105 42.6424 25.6031 42.6424L24.4208 41.7949C24.0977 41.5624 23.657 41.6449 23.4294 41.9674C23.3706 42.0499 23.3339 42.1399 23.3192 42.2299C23.2605 42.5074 23.3633 42.8074 23.6056 42.9799L24.81 43.8424C25.0377 44.0149 25.1919 44.2624 25.236 44.5474C25.2874 44.8399 25.2213 45.1399 25.0524 45.3874C24.8467 45.6874 24.5236 45.8599 24.1638 45.8599C24.0022 45.8599 23.7599 45.8224 23.5542 45.6724L23.0622 45.2899C23.3045 44.3674 23.0035 43.3399 22.225 42.7099L22.1369 42.6424C21.8578 42.4174 21.5347 42.2674 21.1969 42.1849C21.9239 41.1199 21.7256 39.6424 20.7195 38.8324L20.6314 38.7649C19.7281 38.0374 18.4724 38.0749 17.6131 38.7799C17.4589 38.4424 17.2313 38.1349 16.9302 37.8949L16.842 37.8274C16.0783 37.2124 15.0575 37.1449 14.2424 37.5649C14.0881 37.1449 13.8311 36.7549 13.4639 36.4624C12.6635 35.8174 11.5986 35.7574 10.7541 36.2149C10.1666 35.6974 9.53501 34.9099 8.92548 33.9424L14.3158 26.2099C15.5495 26.0824 16.8934 26.1049 18.2006 26.2774L16.8641 27.3724C16.372 27.7174 16.071 28.2949 16.071 28.9024V32.6299C16.071 32.9674 16.2178 33.2749 16.4675 33.4924C16.6658 33.6574 16.9081 33.7474 17.1652 33.7474C17.2313 33.7474 17.2974 33.7399 17.3635 33.7324C18.2741 33.5599 20.345 32.8849 20.9839 30.2299H23.6203C23.9949 30.9649 24.8394 32.4049 26.0585 33.0574C26.1613 33.1099 26.2714 33.1399 26.3816 33.1399L29.5467 33.1774L37.3825 38.6449C37.7056 38.8774 37.8892 39.2374 37.8892 39.6349C37.9113 39.8899 37.8305 40.1374 37.6836 40.3474ZM36.582 36.3199L31.8013 32.9824C31.9261 32.8549 31.9995 32.6824 31.9995 32.4799C32.0069 32.0749 31.6911 31.7524 31.2945 31.7449L26.6019 31.6924C25.6839 31.1074 24.9495 29.7274 24.7366 29.2174C24.6264 28.9474 24.3694 28.7749 24.083 28.7749H20.4111C20.0586 28.7749 19.7575 29.0374 19.7061 29.3974C19.4491 31.2499 18.3475 31.9399 17.5103 32.2024V28.9024C17.5103 28.7674 17.5764 28.6474 17.7233 28.5349L20.5213 26.2549C24.4575 25.7599 28.6067 25.7749 33.1892 26.2924L38.5281 33.9499C37.8599 34.9999 37.1989 35.8099 36.582 36.3199ZM40.5844 34.3924L39.9749 33.5149C39.9749 33.5074 39.9675 33.5074 39.9675 33.4999L34.0485 25.0174L38.0288 22.3024L45.4606 31.0174L40.5844 34.3924Z" fill="white"/>
</g>
<defs>
<clipPath id="clip0_2837_38894">
<rect width="47" height="48" fill="white" transform="translate(0.230469 0.3125)"/>
</clipPath>
</defs>
</svg>
