<svg width="37" height="37" viewBox="0 0 37 37" fill="none" xmlns="http://www.w3.org/2000/svg">
<g id="development 1" clip-path="url(#clip0_2837_38916)">
<g id="Group">
<g id="Group_2">
<path id="Vector" d="M36.17 0.878906H24.9995C24.7151 0.878906 24.4587 1.05026 24.3499 1.31295C24.2411 1.5757 24.3013 1.87812 24.5023 2.07921L27.1334 4.7103L18.2778 13.5659L10.0992 5.38727C9.82457 5.11277 9.37949 5.11277 9.10478 5.38727L1.08093 13.4111C0.806357 13.6857 0.806357 14.1309 1.08093 14.4056C1.21825 14.5428 1.39818 14.6115 1.57811 14.6115C1.75804 14.6115 1.93797 14.5428 2.07529 14.4056L9.60203 6.87888L19.3972 16.674C19.5345 16.8113 19.7144 16.88 19.8944 16.88C20.0743 16.88 20.2542 16.8113 20.3916 16.674C20.6661 16.3995 20.6661 15.9543 20.3916 15.6796L19.2722 14.5603L28.1278 5.70473L32.0539 9.63091L24.9177 16.7672C24.6431 17.0418 24.6431 17.487 24.9177 17.7616C25.055 17.8989 25.235 17.9676 25.4149 17.9676C25.5948 17.9676 25.7747 17.8989 25.9121 17.7616L33.0483 10.6253L35.6728 13.2498C35.8073 13.3843 35.9871 13.4558 36.1701 13.4558C36.2607 13.4558 36.3521 13.4383 36.439 13.4023C36.7017 13.2934 36.8731 13.0371 36.8731 12.7526V1.58203C36.8731 1.19377 36.5583 0.878906 36.17 0.878906ZM35.4669 11.0551L26.697 2.28516H35.4669V11.0551Z" fill="white"/>
</g>
</g>
<g id="Group_3">
<g id="Group_4">
<path id="Vector_2" d="M24.1709 18.5068C24.0402 18.3753 23.8587 18.3008 23.6738 18.3008C23.4889 18.3008 23.3075 18.3753 23.1767 18.5068C23.0452 18.6376 22.9707 18.819 22.9707 19.0039C22.9707 19.1888 23.0452 19.3702 23.1767 19.5009C23.3075 19.6317 23.4889 19.707 23.6738 19.707C23.8587 19.707 24.0402 19.6318 24.1709 19.5009C24.3016 19.3702 24.377 19.1888 24.377 19.0039C24.377 18.819 24.3017 18.6376 24.1709 18.5068Z" fill="white"/>
</g>
</g>
<g id="Group_5">
<g id="Group_6">
<path id="Vector_3" d="M14.4077 19.5366L10.5966 15.7256L11.7314 14.5909C12.006 14.3163 12.006 13.8711 11.7314 13.5965C11.4568 13.322 11.0117 13.322 10.737 13.5965L1.08093 23.2526C0.806357 23.5272 0.806357 23.9724 1.08093 24.247C1.21825 24.3843 1.39818 24.453 1.57811 24.453C1.75804 24.453 1.93797 24.3843 2.07529 24.247L9.60224 16.7201L13.4133 20.5311C13.5506 20.6683 13.7306 20.737 13.9105 20.737C14.0904 20.737 14.2704 20.6683 14.4077 20.5311C14.6822 20.2565 14.6822 19.8113 14.4077 19.5366Z" fill="white"/>
</g>
</g>
<g id="Group_7">
<g id="Group_8">
<path id="Vector_4" d="M18.9059 26.6759L18.873 26.6758C18.4848 26.6758 18.1699 26.9906 18.1699 27.3789C18.1699 27.7672 18.4848 28.082 18.873 28.082L18.8955 28.0821C18.8972 28.0821 18.8991 28.0821 18.9008 28.0821C19.2866 28.0821 19.6009 27.7707 19.6038 27.3842C19.6067 26.9959 19.2942 26.6787 18.9059 26.6759Z" fill="white"/>
</g>
</g>
<g id="Group_9">
<g id="Group_10">
<path id="Vector_5" d="M36.1699 35.4735H34.9366V32.3226C34.9366 31.9997 34.7168 31.7183 34.4035 31.6403L31.1354 30.8261L29.9639 27.9993L31.6987 25.1132C31.8651 24.8364 31.8217 24.482 31.5934 24.2537L28.8685 21.5288C28.6401 21.3005 28.2856 21.2571 28.009 21.4234L25.1228 23.1583L22.296 21.9868L21.4818 18.7187C21.4038 18.4054 21.1224 18.1855 20.7995 18.1855H16.9465C16.6236 18.1855 16.3422 18.4054 16.2642 18.7187L15.45 21.9868L12.6233 23.1583L9.73706 21.4234C9.46031 21.2569 9.10594 21.3005 8.87756 21.5288L6.15274 24.2537C5.92444 24.482 5.88098 24.8365 6.04734 25.1132L7.78223 27.9993L6.61076 30.8261L3.3427 31.6403C3.02939 31.7183 2.80952 31.9997 2.80952 32.3226V35.4735H1.57617C1.18791 35.4735 0.873047 35.7884 0.873047 36.1766C0.873047 36.5649 1.18791 36.8797 1.57617 36.8797H36.1699C36.5582 36.8797 36.873 36.5649 36.873 36.1766C36.873 35.7884 36.5582 35.4735 36.1699 35.4735ZM33.5303 35.4735H26.3443C26.7348 33.085 25.9629 30.6313 24.2268 28.8951C23.4655 28.1339 22.5731 27.5548 21.5746 27.1741C21.2118 27.0357 20.8055 27.2177 20.6671 27.5806C20.5288 27.9434 20.7108 28.3496 21.0736 28.488C21.8858 28.7977 22.6122 29.2692 23.2324 29.8895C24.701 31.3582 25.3224 33.4578 24.9151 35.4734H12.8305C12.4232 33.4577 13.0446 31.3581 14.5133 29.8895C15.1396 29.2631 15.8738 28.7887 16.6954 28.4792C17.0588 28.3423 17.2424 27.9367 17.1056 27.5733C16.9687 27.2099 16.5631 27.0264 16.1998 27.1631C15.1897 27.5436 14.2876 28.1263 13.5188 28.8951C11.7828 30.6311 11.0108 33.0848 11.4013 35.4734H4.2157V32.8721L7.29455 32.105C7.5109 32.0511 7.68879 31.8979 7.77415 31.6919L9.21703 28.2101C9.30239 28.0041 9.28502 27.7698 9.17006 27.5787L7.53558 24.8596L9.48345 22.9117L12.2026 24.5462C12.3937 24.6612 12.6282 24.6786 12.834 24.5932L16.3158 23.1503C16.5217 23.065 16.675 22.8871 16.7289 22.6707L17.4959 19.5919H20.25L21.0171 22.6707C21.0709 22.8871 21.2242 23.065 21.4302 23.1503L24.912 24.5932C25.1179 24.6786 25.3523 24.6613 25.5434 24.5462L28.2625 22.9117L30.2104 24.8596L28.5759 27.5787C28.4609 27.7698 28.4436 28.0041 28.5289 28.2101L29.9718 31.6919C30.0572 31.8979 30.2351 32.0511 30.4514 32.105L33.5303 32.8721V35.4735Z" fill="white"/>
</g>
</g>
</g>
<defs>
<clipPath id="clip0_2837_38916">
<rect width="36" height="36" fill="white" transform="translate(0.873047 0.878906)"/>
</clipPath>
</defs>
</svg>
