<svg width="155" height="155" viewBox="0 0 155 155" fill="none" xmlns="http://www.w3.org/2000/svg">
<g clip-path="url(#clip0_2859_51868)">
<path d="M37.9998 115.435L37.1434 114.429L40.1763 111.847L36.9614 108.072L33.9284 110.655L33.072 109.649L40.4135 103.398L41.2699 104.404L37.8374 107.328L41.0523 111.103L44.4849 108.179L45.3413 109.185L37.9998 115.435Z" fill="#18A457"/>
<path d="M29.7173 104.26L29.0005 102.967L35.7353 95.2299L36.4309 96.4818L34.3809 98.7383L36.2314 102.074L39.2641 101.586L39.9138 102.756L29.7191 104.258L29.7173 104.26ZM33.651 99.6222L30.6378 102.969L35.1178 102.263L33.651 99.6222Z" fill="#18A457"/>
<path d="M26.2848 97.4292L25.8182 95.964L31.7862 89.0229L24.3593 91.381L23.9809 90.1911L33.1727 87.272L33.6168 88.6698L27.6789 95.678L35.0963 93.3223L35.4747 94.5121L26.283 97.4312L26.2848 97.4292Z" fill="#18A457"/>
<path d="M23.2284 86.5787L22.8319 82.7455C22.6972 81.4425 23.0605 80.3866 23.9234 79.5721C24.7033 78.8456 25.7494 78.414 27.0694 78.277C28.0883 78.1724 29.0279 78.2678 29.89 78.5613C31.4126 79.0785 32.2589 80.1477 32.4252 81.7727L32.8212 85.5945L23.2286 86.5825L23.2284 86.5787ZM31.3429 82.128C31.3001 81.698 31.2158 81.3501 31.0956 81.082C30.8734 80.6059 30.5061 80.2341 29.9901 79.9707C29.5758 79.7594 29.0628 79.6291 28.4455 79.5822C28.0786 79.555 27.738 79.5588 27.4311 79.5895C26.2437 79.7122 25.3445 80.0374 24.7337 80.5688C24.1247 81.0983 23.871 81.8764 23.9783 82.9009L24.2108 85.1547L31.5762 84.397L31.3411 82.13L31.3429 82.128Z" fill="#18A457"/>
<path d="M22.392 75.3564L22.6117 73.4968L31.0343 71.7015L23.2601 68.0098L23.4786 66.1636L33.057 67.2971L32.9125 68.5361L27.2604 67.8672C27.065 67.8428 26.741 67.8001 26.2887 67.7391C25.8381 67.6762 25.3533 67.6149 24.8361 67.5534L32.5911 71.2423L32.4395 72.5293L24.0344 74.3331L24.3294 74.3678C24.565 74.3959 24.9209 74.4313 25.4029 74.4755C25.8849 74.5197 26.2388 74.5533 26.4648 74.58L32.1169 75.2489L31.9703 76.4861L22.3918 75.3526L22.392 75.3564Z" fill="#18A457"/>
<path d="M25.3011 60.0643L25.7803 58.6676L36.0389 58.4989L35.5727 59.8531L32.524 59.8374L31.2832 63.4447L33.6751 65.3707L33.2406 66.6376L25.3011 60.0643ZM31.3824 59.8892L26.876 59.886L30.3984 62.743L31.3804 59.8874L31.3824 59.8892Z" fill="#18A457"/>
<path d="M28.1114 52.9034L30.0614 49.5782C30.7236 48.4483 31.6432 47.8118 32.8181 47.6669C33.876 47.5431 34.9768 47.8132 36.1208 48.4847C37.0039 49.0037 37.7061 49.6346 38.2276 50.3812C39.1494 51.6998 39.1976 53.0623 38.3724 54.4689L36.4294 57.7823L28.1112 52.8996L28.1114 52.9034ZM37.2883 54.1162C37.5055 53.7435 37.6468 53.4146 37.7083 53.126C37.8116 52.6106 37.734 52.0947 37.4753 51.5747C37.2676 51.1588 36.929 50.7513 36.461 50.3465C36.1804 50.1075 35.9058 49.91 35.6388 49.7521C34.6086 49.1472 33.6907 48.8794 32.8849 48.9447C32.0791 49.0101 31.4161 49.4871 30.894 50.3777L29.7481 52.3316L36.1355 56.0818L37.2883 54.1162Z" fill="#18A457"/>
<path d="M34.0828 43.5437L38.689 38.278L39.5776 39.0556L35.81 43.3652L38.0154 45.293L41.4988 41.3099L42.3395 42.0443L38.8561 46.0274L41.3185 48.1802L45.1511 43.7987L46.0157 44.5547L41.3448 49.896L34.0848 43.5455L34.0828 43.5437Z" fill="#18A457"/>
<path d="M64.0692 24.12L65.3696 23.8964L66.0469 27.824L70.9313 26.9838L70.2539 23.0563L71.5543 22.8327L73.1926 32.3356L71.8922 32.5591L71.1277 28.1143L66.2433 28.9545L67.0079 33.3993L65.7075 33.6228L64.0692 24.12Z" fill="#18A457"/>
<path d="M77.8856 22.6847L79.3629 22.7226L82.6102 32.4546L81.1804 32.4163L80.2785 29.5033L76.4658 29.4023L75.3469 32.261L74.0086 32.2257L77.8892 22.6807L77.8856 22.6847ZM79.8813 28.4306L78.5283 24.1315L76.8617 28.3505L79.8813 28.4306Z" fill="#18A457"/>
<path d="M85.4891 23.1962L86.9895 23.5375L89.9541 32.2025L91.6795 24.6052L92.8968 24.8827L90.7606 34.2864L89.3295 33.9607L86.2942 25.2897L84.5702 32.8774L83.3529 32.5999L85.4891 23.1962Z" fill="#18A457"/>
<path d="M96.4104 26.0654L99.9132 27.6727C101.102 28.2182 101.829 29.0706 102.093 30.2262C102.325 31.2654 102.163 32.3872 101.609 33.5936C101.183 34.5232 100.624 35.2862 99.9321 35.8788C98.7156 36.9282 97.3638 37.1125 95.8804 36.4314L92.3874 34.8294L96.4066 26.0656L96.4104 26.0654ZM96.1265 35.3168C96.5183 35.4969 96.8606 35.6034 97.1536 35.6362C97.676 35.6879 98.1835 35.5596 98.6723 35.2513C99.0633 35.0031 99.4382 34.6244 99.7932 34.1191C100.002 33.8154 100.172 33.5232 100.301 33.2407C100.8 32.1551 100.975 31.2154 100.828 30.4194C100.683 29.6252 100.139 29.0111 99.2018 28.5843L97.1415 27.6391L94.0545 34.3684L96.1246 35.3188L96.1265 35.3168Z" fill="#18A457"/>
<path d="M106.513 31.0569L108 32.1946L105.255 40.3554L112.392 35.5504L113.869 36.6791L108.016 44.3398L107.025 43.5825L110.481 39.0601C110.601 38.9037 110.803 38.6479 111.086 38.291C111.369 37.9341 111.669 37.5496 111.985 37.1358L104.86 41.9268L103.831 41.1411L106.558 32.9926L106.379 33.2263C106.235 33.4144 106.023 33.7049 105.738 34.0962C105.456 34.4893 105.245 34.7741 105.106 34.9562L101.65 39.4786L100.66 38.7213L106.513 31.0607L106.513 31.0569Z" fill="#18A457"/>
<path d="M118.179 41.3417L119.138 42.4661L114.082 51.3906L113.151 50.3029L114.71 47.6828L112.231 44.7827L109.358 45.8641L108.487 44.8457L118.177 41.3437L118.179 41.3417ZM115.247 46.6715L117.535 42.7925L113.286 44.3773L115.249 46.6733L115.247 46.6715Z" fill="#18A457"/>
<path d="M122.926 47.394L124.803 50.7605C125.44 51.9049 125.523 53.0201 125.053 54.1061C124.625 55.0815 123.832 55.8905 122.673 56.5353C121.777 57.0336 120.877 57.3188 119.969 57.3893C118.365 57.5159 117.169 56.866 116.373 55.4403L114.502 52.083L122.926 47.3902L122.926 47.394ZM117.231 54.6869C117.441 55.0647 117.655 55.3528 117.871 55.5513C118.26 55.9029 118.748 56.0973 119.325 56.1367C119.787 56.1667 120.312 56.0832 120.898 55.8842C121.246 55.7639 121.557 55.6283 121.827 55.4776C122.871 54.8957 123.567 54.2419 123.919 53.516C124.27 52.7901 124.195 51.9753 123.694 51.0734L122.59 49.0939L116.123 52.6962L117.231 54.6869Z" fill="#18A457"/>
<path d="M128.033 57.4038L130.165 64.0699L129.039 64.4293L127.294 58.9754L124.507 59.866L126.118 64.9059L125.054 65.2451L123.443 60.2052L120.329 61.1998L122.103 66.7455L121.009 67.0938L118.846 60.3341L128.031 57.3982L128.033 57.4038Z" fill="#18A457"/>
<path d="M130.559 88.8157L130.193 90.083L126.365 88.9718L124.985 93.7322L128.813 94.8434L128.447 96.1107L119.184 93.425L119.55 92.1576L123.882 93.4128L125.262 88.6524L120.932 87.3952L121.298 86.1279L130.559 88.8157Z" fill="#18A457"/>
<path d="M125.792 101.882L125.108 103.192L114.941 101.827L115.604 100.56L118.619 101.031L120.383 97.65L118.306 95.3884L118.925 94.2016L125.794 101.884L125.792 101.882ZM119.752 101.149L124.207 101.823L121.15 98.47L119.754 101.147L119.752 101.149Z" fill="#18A457"/>
<path d="M121.986 108.49L121.02 109.687L111.936 108.532L117.999 113.428L117.216 114.398L109.71 108.34L110.632 107.198L119.754 108.292L113.697 103.402L114.48 102.432L121.986 108.49Z" fill="#18A457"/>
<path d="M114.63 117.018L111.653 119.466C110.642 120.295 109.56 120.578 108.404 120.309C107.367 120.06 106.429 119.426 105.587 118.401C104.935 117.609 104.495 116.773 104.264 115.893C103.852 114.34 104.277 113.043 105.538 112.008L108.504 109.569L114.63 117.018ZM106.434 112.713C106.1 112.987 105.856 113.249 105.699 113.495C105.425 113.943 105.32 114.452 105.381 115.03C105.433 115.49 105.611 115.991 105.911 116.534C106.091 116.856 106.28 117.136 106.479 117.377C107.238 118.298 108.006 118.869 108.786 119.085C109.566 119.3 110.352 119.08 111.149 118.427L112.898 116.989L108.194 111.267L106.434 112.713Z" fill="#18A457"/>
<path d="M105.726 123.924L104.053 124.764L97.9146 118.72L99.1128 127.242L97.4532 128.076L93.124 119.457L94.2379 118.898L96.7923 123.985C96.8793 124.162 97.0237 124.455 97.2196 124.864C97.4175 125.275 97.6302 125.714 97.8652 126.18L96.6735 117.675L97.83 117.093L103.965 123.116L103.834 122.852C103.728 122.64 103.56 122.321 103.332 121.895C103.105 121.468 102.937 121.153 102.837 120.951L100.282 115.863L101.396 115.304L105.726 123.924Z" fill="#18A457"/>
<path d="M91.3489 129.901L89.9188 130.268L84.1311 121.795L85.518 121.44L87.1843 123.996L90.879 123.048L91.173 119.991L92.4698 119.659L91.3527 129.901L91.3489 129.901ZM87.8537 124.92L90.3314 128.684L90.778 124.171L87.8537 124.92Z" fill="#18A457"/>
<path d="M83.8377 131.491L79.9892 131.698C78.6829 131.768 77.6434 131.354 76.8723 130.454C76.1837 129.64 75.8039 128.572 75.7309 127.248C75.6752 126.227 75.8143 125.291 76.1482 124.444C76.7386 122.948 77.8463 122.156 79.4772 122.068L83.3123 121.859L83.8357 131.489L83.8377 131.491ZM79.7806 123.168C79.3496 123.192 78.9969 123.257 78.7243 123.362C78.2375 123.56 77.8497 123.909 77.5591 124.411C77.3284 124.815 77.1751 125.321 77.0959 125.935C77.0516 126.3 77.0384 126.64 77.056 126.949C77.1204 128.142 77.4029 129.056 77.9034 129.69C78.4022 130.325 79.1669 130.614 80.196 130.559L82.4591 130.437L82.0549 123.042L79.7804 123.164L79.7806 123.168Z" fill="#18A457"/>
<path d="M72.6172 131.698L65.69 130.699L65.859 129.529L71.5262 130.346L71.9424 127.446L66.7048 126.692L66.862 125.587L72.0996 126.342L72.5634 123.105L66.7985 122.276L66.9634 121.139L73.9884 122.15L72.619 131.696L72.6172 131.698Z" fill="#18A457"/>
<path d="M47.2725 37.088C50.6066 34.6012 54.2377 32.5398 58.0819 30.9517" stroke="#95D5B2" stroke-width="1.05459"/>
<path d="M57.7055 123.269C53.8744 121.65 50.2603 119.558 46.9467 117.044" stroke="#95D5B2" stroke-width="1.05459"/>
<path d="M126.713 70.1381C127.299 74.2558 127.37 78.4307 126.924 82.566" stroke="#95D5B2" stroke-width="1.05459"/>
</g>
<defs>
<clipPath id="clip0_2859_51868">
<rect width="109.299" height="109.299" fill="white" transform="translate(81.0918 154.375) rotate(-137.897)"/>
</clipPath>
</defs>
</svg>
