<svg width="41" height="40" viewBox="0 0 41 40" fill="none" xmlns="http://www.w3.org/2000/svg">
<g id="Frame 1618873108">
<g clip-path="url(#clip0_2837_49720)">
<path id="Vector" d="M27.9665 12.4453H14.2487C13.6201 12.4453 13.1094 12.9632 13.1094 13.5989V27.2917C13.1094 27.9275 13.6201 28.4453 14.2487 28.4453H27.9665C28.5951 28.4453 29.1094 27.9275 29.1094 27.2917V13.5989C29.1094 12.9632 28.5951 12.4453 27.9665 12.4453ZM17.9451 26.1596H15.5737V18.5239H17.9487V26.1596H17.9451ZM16.7594 17.481C15.9987 17.481 15.3844 16.8632 15.3844 16.106C15.3844 15.3489 15.9987 14.731 16.7594 14.731C17.5165 14.731 18.1344 15.3489 18.1344 16.106C18.1344 16.8667 17.5201 17.481 16.7594 17.481ZM26.8344 26.1596H24.4629V22.4453C24.4629 21.5596 24.4451 20.4203 23.2308 20.4203C21.9951 20.4203 21.8058 21.3846 21.8058 22.381V26.1596H19.4344V18.5239H21.7094V19.5667H21.7415C22.0594 18.9667 22.8344 18.3346 23.9879 18.3346C26.3879 18.3346 26.8344 19.9167 26.8344 21.9739V26.1596Z" fill="#6A6A6A"/>
</g>
</g>
<defs>
<clipPath id="clip0_2837_49720">
<rect x="0.664062" width="40" height="40" rx="20" fill="white"/>
</clipPath>
</defs>
</svg>
