<svg width="41" height="40" viewBox="0 0 41 40" fill="none" xmlns="http://www.w3.org/2000/svg">
<g id="Frame 1618873107">
<g clip-path="url(#clip0_2837_49717)">
<path id="Vector" d="M17.0378 13C14.626 13 12.6641 14.9637 12.6641 17.3762V23.6262C12.6641 26.0381 14.6278 28 17.0403 28H23.2903C25.7022 28 27.6641 26.0363 27.6641 23.6238V17.3738C27.6641 14.9619 25.7003 13 23.2878 13H17.0378ZM24.5391 15.5C24.8841 15.5 25.1641 15.78 25.1641 16.125C25.1641 16.47 24.8841 16.75 24.5391 16.75C24.1941 16.75 23.9141 16.47 23.9141 16.125C23.9141 15.78 24.1941 15.5 24.5391 15.5ZM20.1641 16.75C22.2322 16.75 23.9141 18.4319 23.9141 20.5C23.9141 22.5681 22.2322 24.25 20.1641 24.25C18.0959 24.25 16.4141 22.5681 16.4141 20.5C16.4141 18.4319 18.0959 16.75 20.1641 16.75ZM20.1641 18C19.501 18 18.8651 18.2634 18.3963 18.7322C17.9275 19.2011 17.6641 19.837 17.6641 20.5C17.6641 21.163 17.9275 21.7989 18.3963 22.2678C18.8651 22.7366 19.501 23 20.1641 23C20.8271 23 21.463 22.7366 21.9318 22.2678C22.4007 21.7989 22.6641 21.163 22.6641 20.5C22.6641 19.837 22.4007 19.2011 21.9318 18.7322C21.463 18.2634 20.8271 18 20.1641 18Z" fill="#6A6A6A"/>
</g>
</g>
<defs>
<clipPath id="clip0_2837_49717">
<rect x="0.664062" width="40" height="40" rx="20" fill="white"/>
</clipPath>
</defs>
</svg>
