<svg width="162" height="175" viewBox="0 0 162 175" fill="none" xmlns="http://www.w3.org/2000/svg">
<g id="Vector 618">
<path d="M0.710973 92.42L0.711037 0.0644531H73.6226H95.0338C131.485 0.0644531 161.034 29.6136 161.034 66.0644V93.1586V174.174L159.928 172.56C147.437 154.323 126.755 143.42 104.651 143.42H51.711C23.5444 143.42 0.710953 120.587 0.710973 92.42Z" fill="white"/>
<path d="M0.710973 92.42L0.711037 0.0644531H73.6226H95.0338C131.485 0.0644531 161.034 29.6136 161.034 66.0644V93.1586V174.174L159.928 172.56C147.437 154.323 126.755 143.42 104.651 143.42H51.711C23.5444 143.42 0.710953 120.587 0.710973 92.42Z" fill="url(#paint0_linear_2837_38914)"/>
</g>
<defs>
<linearGradient id="paint0_linear_2837_38914" x1="-82.5737" y1="-96.4528" x2="266.729" y2="-67.0706" gradientUnits="userSpaceOnUse">
<stop offset="0.382355" stop-color="#20BA77"/>
<stop offset="1" stop-color="#256C4E"/>
</linearGradient>
</defs>
</svg>
