<svg width="41" height="40" viewBox="0 0 41 40" fill="none" xmlns="http://www.w3.org/2000/svg">
<g id="Frame 1618873076">
<g clip-path="url(#clip0_2837_49711)">
<path id="Vector" d="M28.1857 19.5272C28.6324 19.5272 29.0456 19.4124 29.4253 19.1827C29.805 18.9529 30.0977 18.6399 30.3031 18.2435C29.9458 18.4146 29.5705 18.525 29.1774 18.5746C28.7843 18.6241 28.3956 18.6038 28.0114 18.5137C27.9846 18.3606 27.9489 18.2074 27.9042 18.0543C27.7613 17.4237 27.4865 16.8584 27.08 16.3584C26.6735 15.8584 26.1821 15.471 25.6058 15.1962C25.0295 14.9215 24.4197 14.7886 23.7765 14.7976L24.2321 14.6354C24.2589 14.6264 24.3349 14.6039 24.4599 14.5679C24.7816 14.4868 25.0139 14.4147 25.1568 14.3517C25.407 14.2255 25.5031 14.0926 25.445 13.953C25.3869 13.8134 25.1658 13.7931 24.7816 13.8922C24.5672 13.9463 24.25 14.0499 23.8301 14.203L23.5486 14.3111C23.8167 14.212 24.0266 14.1129 24.1785 14.0138C24.4197 13.8607 24.5538 13.694 24.5806 13.5138C23.9998 13.6039 23.4905 13.8472 23.0528 14.2435C23.2136 14.0814 23.3119 13.8877 23.3476 13.6625C22.6775 14.0859 22.07 14.7571 21.5249 15.676C21.1408 16.3426 20.7342 17.248 20.3054 18.3921C19.8676 17.9327 19.3762 17.5363 18.8312 17.203C17.214 16.3471 15.5477 15.6084 13.8323 14.9868C13.8323 15.5273 13.9842 16.025 14.288 16.48C14.5917 16.9349 14.9938 17.2615 15.4941 17.4597C15.0921 17.4417 14.6945 17.4867 14.3014 17.5948C14.3996 18.0723 14.6007 18.4642 14.9044 18.7705C15.2618 19.1309 15.789 19.3921 16.4859 19.5543C16.2357 19.5453 15.9945 19.5858 15.7622 19.6759C15.5299 19.766 15.3244 19.9011 15.1457 20.0813C15.378 20.5227 15.7153 20.8515 16.1575 21.0678C16.5998 21.284 17.0621 21.347 17.5446 21.2569C17.1962 21.4101 16.9639 21.5948 16.8477 21.811C16.7405 22.0092 16.736 22.2051 16.8343 22.3988C16.9326 22.5925 17.1023 22.7412 17.3436 22.8448C17.5848 22.9484 17.8528 22.9776 18.1477 22.9326C17.5044 23.5992 16.745 24.0587 15.8694 24.3109C15.0117 24.5632 14.1495 24.5902 13.2828 24.392C12.3983 24.1848 11.6165 23.7659 10.9375 23.1353C11.8846 24.4326 13.055 25.4145 14.4488 26.0812C15.7354 26.6938 17.1291 27.0091 18.6302 27.0271C20.0597 27.0361 21.4401 26.7749 22.7713 26.2433C24.1026 25.7118 25.2283 24.9731 26.1486 24.0272C27.1224 23.0272 27.7613 21.8966 28.065 20.6353C28.5028 20.6714 28.925 20.6106 29.3315 20.4529C29.738 20.2952 30.0932 20.0588 30.397 19.7435C29.6465 19.8516 28.9094 19.7795 28.1857 19.5272Z" fill="#6A6A6A"/>
</g>
</g>
<defs>
<clipPath id="clip0_2837_49711">
<rect x="0.664062" width="40" height="40" rx="20" fill="white"/>
</clipPath>
</defs>
</svg>
