<svg width="41" height="40" viewBox="0 0 41 40" fill="none" xmlns="http://www.w3.org/2000/svg">
<g id="Frame 1618873109">
<g clip-path="url(#clip0_2837_49723)">
<path id="Vector" d="M30.479 15.5573C30.254 14.6814 29.5914 13.9915 28.75 13.7574C27.225 13.332 21.1098 13.332 21.1098 13.332C21.1098 13.332 14.9946 13.332 13.4696 13.7574C12.6282 13.9916 11.9656 14.6814 11.7407 15.5573C11.332 17.145 11.332 20.4575 11.332 20.4575C11.332 20.4575 11.332 23.77 11.7407 25.3577C11.9656 26.2336 12.6282 26.8947 13.4696 27.1288C14.9946 27.5543 21.1098 27.5543 21.1098 27.5543C21.1098 27.5543 27.225 27.5543 28.75 27.1288C29.5914 26.8947 30.254 26.2336 30.479 25.3577C30.8876 23.77 30.8876 20.4575 30.8876 20.4575C30.8876 20.4575 30.8876 17.145 30.479 15.5573ZM19.1098 23.465V17.45L24.2209 20.4576L19.1098 23.465Z" fill="#6A6A6A"/>
</g>
</g>
<defs>
<clipPath id="clip0_2837_49723">
<rect x="0.664062" width="40" height="40" rx="20" fill="white"/>
</clipPath>
</defs>
</svg>
