<svg width="56" height="16" viewBox="0 0 56 16" fill="none" xmlns="http://www.w3.org/2000/svg">
<g id="Amazon_logo 1" clip-path="url(#clip0_2806_7135)">
<path id="path8" d="M34.7328 12.4996C31.4824 14.7675 26.7712 15.9775 22.715 15.9775C17.0274 15.9775 11.9072 13.9862 8.03354 10.6743C7.7292 10.4138 8.00189 10.0589 8.3671 10.2617C12.5475 12.5642 17.7165 13.9493 23.0558 13.9493C26.6568 13.9493 30.6181 13.2441 34.2605 11.7805C34.8107 11.5593 35.2709 12.1217 34.7328 12.4996Z" fill="white"/>
<path id="path10" d="M36.0839 11.0363C35.67 10.5339 33.3375 10.7989 32.2906 10.9165C31.9716 10.9533 31.9229 10.6906 32.2102 10.5016C34.0679 9.26392 37.1162 9.62116 37.4717 10.036C37.8272 10.4532 37.3792 13.3457 35.6335 14.7262C35.3657 14.9383 35.11 14.8254 35.2293 14.5442C35.6213 13.6176 36.5002 11.541 36.0839 11.0363Z" fill="white"/>
<path id="path12" d="M32.3639 1.76416V0.561066C32.3639 0.378989 32.5099 0.256836 32.6852 0.256836H38.3752C38.5578 0.256836 38.7039 0.381294 38.7039 0.561066V1.5913C38.7015 1.76416 38.5481 1.99003 38.2754 2.34727L35.3269 6.33223C36.4226 6.30688 37.5791 6.4613 38.5724 6.99139C38.7964 7.11124 38.8573 7.28641 38.8743 7.45927V8.74303C38.8743 8.91819 38.6698 9.12331 38.4556 9.01729C36.705 8.14839 34.3798 8.0539 32.4442 9.02651C32.247 9.12792 32.04 8.9251 32.04 8.74994V7.53071C32.04 7.33481 32.0425 7.00061 32.2494 6.7033L35.6654 2.06609H32.6925C32.5099 2.06609 32.3639 1.94393 32.3639 1.76416Z" fill="white"/>
<path id="path14" d="M11.6077 9.27094H9.87659C9.71103 9.25942 9.57956 9.14188 9.56738 8.99207V0.581934C9.56738 0.413685 9.7159 0.280007 9.90094 0.280007H11.5152C11.6832 0.286917 11.8171 0.409074 11.8293 0.56119V1.66057H11.8609C12.2821 0.598066 13.0734 0.102539 14.1398 0.102539C15.2233 0.102539 15.9001 0.598066 16.3871 1.66057C16.8058 0.598066 17.7578 0.102539 18.778 0.102539C19.5035 0.102539 20.2972 0.386027 20.7818 1.02215C21.3296 1.72971 21.2176 2.75764 21.2176 3.65881L21.2151 8.96671C21.2151 9.13496 21.0666 9.27094 20.8816 9.27094H19.1529C18.9801 9.25942 18.8413 9.12805 18.8413 8.96671V4.50927C18.8413 4.15434 18.8754 3.2693 18.7926 2.93281C18.6635 2.36814 18.2764 2.20911 17.7749 2.20911C17.3561 2.20911 16.9178 2.47415 16.7401 2.89824C16.5624 3.32231 16.5794 4.03218 16.5794 4.50927V8.96671C16.5794 9.13496 16.4309 9.27094 16.2459 9.27094H14.5172C14.3419 9.25942 14.2055 9.12805 14.2055 8.96671L14.2031 4.50927C14.2031 3.57123 14.3662 2.19067 13.1367 2.19067C11.8926 2.19067 11.9412 3.53666 11.9412 4.50927V8.96671C11.9412 9.13496 11.7927 9.27094 11.6077 9.27094Z" fill="white"/>
<path id="path16" d="M43.6026 0.102539C46.1712 0.102539 47.5615 2.19067 47.5615 4.84577C47.5615 7.41099 46.0252 9.44611 43.6026 9.44611C41.0802 9.44611 39.707 7.35798 39.707 4.75589C39.707 2.13766 41.0973 0.102539 43.6026 0.102539ZM43.6172 1.8196C42.3414 1.8196 42.2611 3.46521 42.2611 4.49084C42.2611 5.51877 42.244 7.71291 43.6026 7.71291C44.9441 7.71291 45.0074 5.94285 45.0074 4.86421C45.0074 4.15434 44.9758 3.30618 44.7494 2.63318C44.5546 2.04777 44.1675 1.8196 43.6172 1.8196Z" fill="white"/>
<path id="path18" d="M50.8924 9.27094H49.1686C48.9957 9.25942 48.8569 9.12805 48.8569 8.96671L48.8545 0.554275C48.8691 0.399855 49.0127 0.280007 49.188 0.280007H50.7925C50.9435 0.286917 51.0677 0.383722 51.1017 0.515095V1.80116H51.1334C51.6179 0.651076 52.2972 0.102539 53.4927 0.102539C54.2693 0.102539 55.0265 0.367589 55.5135 1.09359C55.9663 1.76659 55.9663 2.89824 55.9663 3.71182V9.0059C55.9469 9.1534 55.8032 9.27094 55.6328 9.27094H53.8968C53.7386 9.25942 53.6071 9.14879 53.59 9.0059V4.43783C53.59 3.51822 53.702 2.17223 52.5066 2.17223C52.0854 2.17223 51.6983 2.43958 51.5059 2.84522C51.2624 3.35919 51.2308 3.87085 51.2308 4.43783V8.96671C51.2284 9.13496 51.0774 9.27094 50.8924 9.27094Z" fill="white"/>
<path id="use28" d="M27.8273 5.25333V4.89839C26.5759 4.89839 25.2538 5.15192 25.2538 6.54861C25.2538 7.25618 25.6409 7.73558 26.3056 7.73558C26.7926 7.73558 27.2284 7.45209 27.5035 6.99113C27.8444 6.42416 27.8273 5.89175 27.8273 5.25333ZM29.573 9.24751C29.4586 9.34431 29.293 9.35122 29.164 9.28669C28.5894 8.83495 28.4871 8.62522 28.1706 8.19423C27.2211 9.11153 26.5491 9.38579 25.3171 9.38579C23.8611 9.38579 22.7266 8.53533 22.7266 6.8321C22.7266 5.50225 23.4886 4.59647 24.5721 4.15395C25.5119 3.76214 26.8242 3.693 27.8273 3.58467V3.37263C27.8273 2.98312 27.859 2.52217 27.6179 2.18567C27.4061 1.88374 27.002 1.75929 26.6465 1.75929C25.9867 1.75929 25.3975 2.07965 25.2538 2.74343C25.2246 2.89093 25.1102 3.03613 24.9543 3.04305L23.2744 2.87249C23.1332 2.84253 22.9773 2.73421 23.0163 2.52908C23.4034 0.60229 25.2416 0.0214844 26.8875 0.0214844C27.7299 0.0214844 28.8304 0.233524 29.4951 0.837375C30.3375 1.58182 30.2572 2.57518 30.2572 3.65612V6.20981C30.2572 6.9773 30.5932 7.3138 30.9097 7.72866C31.0217 7.87617 31.046 8.05363 30.9048 8.16426C30.5518 8.44314 29.9236 8.96172 29.5779 9.25212L29.573 9.24751Z" fill="white"/>
<path id="path30" d="M5.13397 5.25333V4.89839C3.88251 4.89839 2.56045 5.15192 2.56045 6.54861C2.56045 7.25618 2.94758 7.73558 3.61226 7.73558C4.0992 7.73558 4.53502 7.45209 4.81015 6.99113C5.15101 6.42416 5.13397 5.89175 5.13397 5.25333ZM6.87967 9.24751C6.76524 9.34431 6.59967 9.35122 6.47063 9.28669C5.89604 8.83495 5.79378 8.62522 5.47726 8.19423C4.52772 9.11153 3.85573 9.38579 2.62376 9.38579C1.16779 9.38579 0.0332031 8.53533 0.0332031 6.8321C0.0332031 5.50225 0.795274 4.59647 1.87873 4.15395C2.81854 3.76214 4.13086 3.693 5.13397 3.58467V3.37263C5.13397 2.98312 5.16562 2.52217 4.92458 2.18567C4.71276 1.88374 4.30859 1.75929 3.95312 1.75929C3.29331 1.75929 2.7041 2.07965 2.56045 2.74343C2.53124 2.89093 2.4168 3.03613 2.26098 3.04305L0.581018 2.87249C0.439803 2.84253 0.28398 2.73421 0.322936 2.52908C0.710058 0.60229 2.54828 0.0214844 4.19416 0.0214844C5.03658 0.0214844 6.13707 0.233524 6.80176 0.837375C7.64417 1.58182 7.56383 2.57518 7.56383 3.65612V6.20981C7.56383 6.9773 7.89982 7.3138 8.21634 7.72866C8.32833 7.87617 8.35268 8.05363 8.21147 8.16426C7.85843 8.44314 7.23027 8.96172 6.88454 9.25212L6.87967 9.24751Z" fill="white"/>
</g>
<defs>
<clipPath id="clip0_2806_7135">
<rect width="56" height="16" fill="white" transform="translate(-0.000976562)"/>
</clipPath>
</defs>
</svg>
