<svg width="20" height="20" viewBox="0 0 20 20" fill="none" xmlns="http://www.w3.org/2000/svg">
<g id="Frame">
<g id="Group">
<path id="Vector" d="M15.9463 2.46309C14.3582 0.874639 12.2469 0 10.0007 0C7.75452 0 5.64317 0.874639 4.05513 2.46309C0.777195 5.74103 0.777195 11.0751 4.05513 14.3534L9.4906 19.7885C9.63122 19.9295 9.81596 20 10.0007 20C10.1854 20 10.3702 19.9295 10.5108 19.7885L15.9463 14.3534C19.2242 11.0751 19.2242 5.74103 15.9463 2.46309ZM10.0007 12.1315C9.00606 12.1315 8.07122 11.7443 7.36771 11.0412C6.66462 10.3377 6.2774 9.40289 6.2774 8.40825C6.2774 7.41361 6.66462 6.47835 7.36771 5.77526C8.07122 5.07217 9.00606 4.68454 10.0007 4.68454C10.9953 4.68454 11.9302 5.07217 12.6337 5.77526C14.0852 7.22722 14.0852 9.58928 12.6337 11.0412C11.9302 11.7443 10.9953 12.1315 10.0007 12.1315Z" fill="#16954F"/>
</g>
</g>
</svg>
