<svg width="18" height="19" viewBox="0 0 18 19" fill="none" xmlns="http://www.w3.org/2000/svg">
<g id="Frame" clip-path="url(#clip0_2825_7213)">
<g id="Group">
<path id="Vector" fill-rule="evenodd" clip-rule="evenodd" d="M17.6703 16.3874C17.5508 16.5065 17.4067 16.6589 17.2538 16.8201C16.8725 17.2248 16.396 17.728 16.0974 17.932C14.5263 19.0056 12.4243 18.4919 10.9376 17.8724C8.97622 17.0552 6.84087 15.5489 4.92355 13.6314C3.00444 11.7137 1.49828 9.57764 0.68107 7.61743C0.0623204 6.13033 -0.452473 4.02798 0.621305 2.4565C0.825211 2.15767 1.32953 1.68197 1.73375 1.29986C1.89547 1.14749 2.04664 1.00353 2.16618 0.884383C2.37839 0.673226 2.66558 0.554687 2.96494 0.554688C3.26431 0.554687 3.5515 0.673226 3.76371 0.884383L6.65454 3.77437C6.86558 3.98657 6.98405 4.27368 6.98405 4.57296C6.98405 4.87224 6.86558 5.15935 6.65454 5.37155L5.86704 6.15747C5.60404 6.41854 5.43237 6.75756 5.37759 7.12406C5.3228 7.49057 5.38782 7.86496 5.56297 8.19154C6.64613 10.2359 8.31832 11.9078 10.3629 12.9906C10.6894 13.1657 11.0637 13.2306 11.4301 13.1758C11.7965 13.1209 12.1353 12.9491 12.3962 12.6861L13.1818 11.9001C13.394 11.6889 13.6812 11.5704 13.9806 11.5704C14.2799 11.5704 14.5671 11.6889 14.7793 11.9001L17.6703 14.7906C17.8814 15.0027 17.9998 15.2898 17.9998 15.589C17.9998 15.8882 17.8814 16.1753 17.6703 16.3874Z" fill="#16954F"/>
</g>
</g>
<defs>
<clipPath id="clip0_2825_7213">
<rect width="18" height="18" fill="white" transform="translate(0 0.554688)"/>
</clipPath>
</defs>
</svg>
